# xmcd CD database file
#
# Track frame offsets:
#	150
#	18833
#	52827
#	69122
#	90695
#	119868
#	150189
#	182111
#
# Disc length: 2698 seconds
#
# Revision: 2
# Processed by: cddbd v1.5.2PL0 Copyright (c) Steve Scherf et al.
# Submitted via: CDex 1.51
#
DISCID=580a8808
DTITLE=Jimmy Scott - Milestone Profiles [CD2]
DYEAR=2006
DGENRE=Jazz
TTITLE0=1. Joe Henderson: The Kicker
TTITLE1=2. McCoy Tyner: Song for my Lady
TTITLE2=3. Flora purim - Dindi
TTITLE3=4. Jim Hall/Ron Carter Duo: St Thomas
TTITLE4=5. Sonny Rollins: I'm Old Fashioned
TTITLE5=6. Hank Crawford and Jimmy McGriff: One Mint Julep
TTITLE6=7. Jimmy Smith: No Doubt About It
TTITLE7=8. Jimmy Scott: I Thought About You
EXTD=YEAR: 2006
EXTT0=
EXTT1=
EXTT2=
EXTT3=
EXTT4=
EXTT5=
EXTT6=
EXTT7=
PLAYORDER=
